<?xml version="1.0" encoding="UTF-8"?>
<svg id="Capa_2" data-name="Capa 2" xmlns="http://www.w3.org/2000/svg" viewBox="0 0 236.44 236.44">
  <defs>
    <style>
      .cls-1 {
        fill: #fff;
      }

      .cls-2 {
        fill: red;
      }
    </style>
  </defs>
  <g id="Capa_1-2" data-name="Capa 1">
    <g id="av-villas">
      <rect class="cls-2" width="236.44" height="236.44" rx="33.61" ry="33.61"/>
      <path class="cls-1" d="M177.87,71.12c12.29-12.54,25.89-22.11,40.01-24.86,0,0-1.99-.19-5.5,.02-58.73,14.04-92.96,112.84-92.96,112.84,0,0,0,.53-3.2,0-3.2-47.92-59.77-61.76-59.77-61.76,0,0,32.31-8.75,59.77,21.3,15.6-28.96,33.18-46.48,49.13-57.05-22.33-12.14-56.49-11.27-88.66,4.6C31.9,88.3,7.92,131.09,23.13,161.79c15.21,30.7,63.85,37.67,108.65,15.57,44.79-22.09,68.77-64.88,53.55-95.58-1.96-3.95-4.47-7.51-7.46-10.66Zm-97.44,95.15c-22.35-1.54-39.73-12.35-38.81-24.14,.91-11.79,19.77-20.11,42.11-18.57,7.46,.52,14.34,2.07,20.19,4.34-.39-.03-.78-.07-1.17-.1-23.76-1.64-43.62,4.61-44.34,13.98-.72,9.35,17.95,18.27,41.72,19.9,3.27,.22,6.46,.28,9.54,.22-7.64,3.41-17.99,5.14-29.25,4.36Z"/>
    </g>
  </g>
</svg>