<?xml version="1.0" encoding="UTF-8"?>
<svg id="Capa_2" data-name="Capa 2" xmlns="http://www.w3.org/2000/svg" xmlns:xlink="http://www.w3.org/1999/xlink" viewBox="0 0 236.44 236.44">
  <defs>
    <style>
      .cls-1 {
        fill: #27c139;
      }

      .cls-2 {
        fill: #ffe600;
      }

      .cls-3 {
        fill: #f9f9f9;
      }

      .cls-4 {
        clip-path: url(#clippath);
      }

      .cls-5 {
        fill: none;
      }

      .cls-6 {
        fill: #c54aed;
      }

      .cls-7 {
        fill: #212120;
      }
    </style>
    <clipPath id="clippath">
      <rect class="cls-5" width="236.44" height="236.44" rx="33.61" ry="33.61"/>
    </clipPath>
  </defs>
  <g id="Capa_1-2" data-name="Capa 1">
    <g id="bancolombia">
      <rect class="cls-7" width="236.44" height="236.44" rx="33.61" ry="33.61"/>
      <g class="cls-4">
        <path class="cls-2" d="M121.6,250.27c-6.46-20.73-20.42-50.51-50.26-74.63-43.84-35.43-93.56-35.23-112.92-33.5l-1.14-12.73c20.89-1.87,74.62-2.08,122.09,36.29,32.33,26.13,47.44,58.35,54.43,80.77l-12.2,3.8Z"/>
        <path class="cls-6" d="M-78.87,205.82s-.09,0-.14,0c-3.53-.07-6.33-3-6.25-6.52,.34-15.91,4.89-29.49,13.15-39.29,24.57-29.12,79.79-28.68,131.3,1.04,3.06,1.76,4.11,5.67,2.34,8.73-1.76,3.06-5.67,4.1-8.73,2.34-45.4-26.19-94.9-27.86-115.15-3.87-6.36,7.54-9.86,18.37-10.14,31.32-.07,3.48-2.92,6.25-6.38,6.25Z"/>
        <path class="cls-1" d="M96.39,348.47c-1.5,0-3.01-.53-4.23-1.6-2.65-2.34-2.9-6.37-.56-9.02,7.49-8.49,20.5-26.53,23.48-52.06,4.11-35.14-12.96-61.24-20.49-70.83-2.18-2.78-1.7-6.79,1.08-8.97,2.77-2.18,6.79-1.7,8.97,1.08,8.51,10.83,27.79,40.34,23.13,80.2-3.39,28.98-18.12,49.42-26.6,59.03-1.26,1.43-3.02,2.16-4.79,2.16Z"/>
        <g>
          <path class="cls-3" d="M164.71,30.47c-26.25,3.24-51.61,8.02-77.03,15.39-3.31,1.04-5.35,4.74-4.51,8.03,1.86,7.32,2.79,11,4.68,18.34,.8,3.11,3.92,4.7,7.09,3.65,25.97-7.99,52-13.46,78.86-17.44,3.08-.41,4.76-3.6,3.63-6.79-2.38-6.73-3.58-10.09-6.02-16.78-1.04-2.84-3.84-4.71-6.71-4.4Z"/>
          <path class="cls-3" d="M186.66,71.24c-41.1,5.24-81.12,15.4-119.07,32.2-2.77,1.31-4.42,4.79-3.84,7.86,1.49,7.85,2.24,11.78,3.75,19.65,.65,3.36,3.79,4.91,6.89,3.4,38.54-17.66,79.27-28.9,121.06-35.6,2.66-.44,4.01-3.48,2.99-6.62-2.1-6.5-3.17-9.75-5.34-16.22-1.01-3.01-3.74-5.02-6.45-4.66Z"/>
          <path class="cls-3" d="M186.17,115.03c-25.66,5.57-50.75,12.28-75.59,20.82-3.15,1.16-4.92,4.48-4.1,7.54,1.98,7.29,2.96,10.95,4.96,18.26,.94,3.43,4.8,5.19,8.35,3.84,24.84-8.9,49.91-16.67,75.55-22.9,2.46-.6,3.67-3.48,2.76-6.46-2.02-6.56-3.04-9.84-5.11-16.37-1.02-3.21-3.99-5.31-6.82-4.73Z"/>
        </g>
      </g>
    </g>
  </g>
</svg>