<?xml version="1.0" encoding="UTF-8"?>
<svg id="Capa_1" data-name="Capa 1" xmlns="http://www.w3.org/2000/svg" xmlns:xlink="http://www.w3.org/1999/xlink" viewBox="0 0 2644.03 2644.03">
  <defs>
    <style>
      .cls-1 {
        fill: #32005e;
      }

      .cls-2 {
        clip-path: url(#clippath-2);
      }

      .cls-3 {
        fill: url(#Degradado_sin_nombre_11);
      }

      .cls-4 {
        clip-path: url(#clippath-1);
      }

      .cls-5 {
        clip-path: url(#clippath-4);
      }

      .cls-6 {
        clip-path: url(#clippath);
      }

      .cls-7 {
        fill: none;
      }

      .cls-8 {
        clip-path: url(#clippath-3);
      }
    </style>
    <clipPath id="clippath">
      <path class="cls-7" d="M829.65,1431.01c-8.21-54.95-48.85-101.19-104.22-119.62,13.25-6.82,38.29-22.09,56.59-51.46,28.15-45.15,23.18-95.98,12.88-126.1-22.6-65.89-98.04-112.09-186.53-109.32H332.31c-11.7,0-19.94,11.4-16.33,22.47,26.34,80.45,52.68,160.9,79.02,241.35,5.55,16.87,5.64,35.05,.29,51.96-26.51,83.98-53.02,168.01-79.52,252-3.49,11.15,4.88,22.43,16.54,22.3l324.96-3.49c15.32,.08,68.5-1.6,114.49-41.15,11.61-10.01,69.26-62.44,57.9-138.94Zm-372.42-298.24l167.55-1.18c34.92,7.24,59.37,38.33,58.19,72.04-1.26,36.99-33.03,68.21-72.33,68.5-37.11,.08-74.22,.21-111.33,.29-6.1,0-11.53-3.91-13.42-9.72-12.67-39.01-25.33-77.97-38-116.97-2.06-6.35,2.65-12.92,9.34-12.96Zm196.79,372.84c-65.01,.42-130.02,.8-195.07,1.18-7.87,.08-13.55-7.57-11.23-15.11,11.74-38.37,23.52-76.79,35.26-115.16,2.06-6.82,8.37-11.44,15.48-11.44h146.26c38.5,2.78,67.95,34.76,67.83,71.07-.08,32.95-24.45,62.57-58.53,69.47Z"/>
    </clipPath>
    <linearGradient id="Degradado_sin_nombre_11" data-name="Degradado sin nombre 11" x1="279.69" y1="1317.49" x2="2381.06" y2="1317.49" gradientUnits="userSpaceOnUse">
      <stop offset="0" stop-color="#00c4ff"/>
      <stop offset="1" stop-color="#00ff6d"/>
    </linearGradient>
    <clipPath id="clippath-1">
      <path class="cls-7" d="M989.8,1339.67v259.42c0,8.57-6.95,15.52-15.52,15.52h-86.67c-8.57,0-15.52-6.95-15.52-15.52v-451.99c0-8.57,6.95-15.52,15.52-15.52h86.67c8.57,0,15.52,6.95,15.52,15.52v83.54c2.06-10.16,9.67-41.11,38.11-66.57,27.81-24.89,58.57-29.34,68.98-30.39h122.23c11.64,0,16.8,14.47,7.92,21.99-23.92,20.26-48.81,48.14-65.99,85.58-1.43,3.12-2.77,6.22-4.02,9.29-3.43,8.43-11.6,13.93-20.7,13.97l-76.58,.34c-6.71,.25-26.62,1.88-44.39,16.92-25.6,21.68-25.64,53.36-25.57,57.89Z"/>
    </clipPath>
    <clipPath id="clippath-2">
      <path class="cls-7" d="M1624.31,1336.46c-4.04-42.96-9.21-91.9-43.84-135.15-59.33-74.05-160.57-71.53-177.77-71.11-21.71,.55-92.4,3.37-151.1,57.69-50.7,46.83-62.57,105.19-68.84,137-8.54,43.09-5.18,79.15-1.94,99.68,2.99,18.98,8.33,52.89,28.95,87.48,36.23,60.76,96.27,84.15,115.12,91.35,9.47,3.58,131.2,47.59,225.78-26.38,30.08-23.52,47.88-51.54,58.19-72.46,3.83-7.7-.25-17-8.58-19.31l-73.72-20.7c-9.17-2.57-19.1,1.05-23.94,9.21-3.07,5.18-7.11,10.65-12.41,15.78-27.31,26.34-66.86,23.39-87.48,21.88-18.68-1.39-40.23-2.99-61.77-17.38-40.27-26.89-46.28-71.4-47.25-80.7,106.5,.08,212.95,.21,319.45,.29,5.51,0,10.14-4.12,10.73-9.64,1.85-17.55,2.95-40.73,.42-67.53Zm-328.37-14.81c2.19-9.21,13.67-53.77,55.33-77.17,25.88-14.52,51.71-14.35,63.03-14.18,12.2,.25,33.16,.63,53.4,12.24,39.64,22.76,46.62,71.32,47.59,79.1h-219.35Z"/>
    </clipPath>
    <clipPath id="clippath-3">
      <path class="cls-7" d="M1831.06,1360.25h-147.24c-7.46,0-13.51-6.05-13.51-13.51v-66.89c0-7.46,6.05-13.51,13.51-13.51h147.24c4.98,0,9.43,3.13,11.11,7.82l11.46,31.98c1.66,4.62,1.66,9.68,0,14.3l-11.46,31.98c-1.68,4.69-6.13,7.82-11.11,7.82Z"/>
    </clipPath>
    <clipPath id="clippath-4">
      <path class="cls-7" d="M2327.58,1431.01c-8.2-54.95-48.85-101.19-104.22-119.62,13.25-6.82,38.29-22.09,56.59-51.46,28.15-45.15,23.18-95.98,12.88-126.1-22.6-65.89-98.04-112.09-186.53-109.32h-276.07c-11.7,0-19.94,11.4-16.33,22.47,26.34,80.45,52.68,160.9,79.02,241.35,5.55,16.87,5.64,35.05,.29,51.96-26.51,83.98-53.02,168.01-79.52,252-3.49,11.15,4.88,22.43,16.54,22.3l324.96-3.49c15.32,.08,68.5-1.6,114.49-41.15,11.61-10.01,69.26-62.44,57.9-138.94Zm-372.42-298.24l167.55-1.18c34.92,7.24,59.37,38.33,58.19,72.04-1.26,36.99-33.03,68.21-72.33,68.5-37.11,.08-74.22,.21-111.33,.29-6.1,0-11.53-3.91-13.42-9.72-12.67-39.01-25.33-77.97-38-116.97-2.06-6.35,2.65-12.92,9.34-12.96Zm196.79,372.84c-65.01,.42-130.02,.8-195.07,1.18-7.87,.08-13.55-7.57-11.23-15.11,11.74-38.37,23.52-76.79,35.26-115.16,2.06-6.82,8.37-11.44,15.48-11.44h146.26c38.5,2.78,67.95,34.76,67.83,71.07-.08,32.95-24.45,62.57-58.53,69.47Z"/>
    </clipPath>
  </defs>
  <rect class="cls-1" width="2644.03" height="2644.03" rx="375.83" ry="375.83"/>
  <g>
    <g class="cls-6">
      <rect class="cls-3" x="279.69" y="1000.4" width="2101.37" height="634.18"/>
    </g>
    <g class="cls-4">
      <rect class="cls-3" x="279.69" y="1000.4" width="2101.37" height="634.18"/>
    </g>
    <g class="cls-2">
      <rect class="cls-3" x="279.69" y="1000.4" width="2101.37" height="634.18"/>
    </g>
    <g class="cls-8">
      <rect class="cls-3" x="279.69" y="1000.4" width="2101.37" height="634.18"/>
    </g>
    <g class="cls-5">
      <rect class="cls-3" x="279.69" y="1000.4" width="2101.37" height="634.18"/>
    </g>
  </g>
</svg>
