<?xml version="1.0" encoding="UTF-8"?>
<svg id="Capa_2" data-name="Capa 2" xmlns="http://www.w3.org/2000/svg" viewBox="0 0 236.44 236.44">
  <defs>
    <style>
      .cls-1 {
        fill: #fff;
      }

      .cls-2 {
        fill: none;
        stroke: #fff;
        stroke-miterlimit: 10;
        stroke-width: 1.08px;
      }

      .cls-3 {
        fill: #e1251b;
      }
    </style>
  </defs>
  <g id="Capa_1-2" data-name="Capa 1">
    <g id="daviplata">
      <rect class="cls-3" width="236.44" height="236.44" rx="33.61" ry="33.61"/>
      <g>
        <path class="cls-1" d="M30.16,122.39c0-1.71-.02-3.42,0-5.14,.02-1.17,.14-2.36,1.64-2.37s1.64,1.14,1.64,2.35c0,3.11,.02,6.2-.02,9.31,0,.84,.19,1.23,1.05,1.35,3.67,.52,7.25,.31,10.62-1.42,3.87-1.98,6.22-7.76,1.29-11.96-2.78-2.37-6.06-2.95-9.44-3.23-2.82-.23-5.61,.09-8.33,.9-.96,.28-1.91,.44-2.31-.77-.38-1.16,.26-1.98,1.25-2.4,2.16-.94,4.46-1.11,6.77-1.16,4.18-.1,8.28,.41,12.11,2.26,3.48,1.68,6.01,4.25,6.65,8.39,.7,4.57-1.82,9.13-6.26,11.2-4.49,2.1-9.2,2.33-13.98,1.48-1.9-.34-2.55-1.28-2.69-3.32,0-.1,0-.22,0-.32v-5.13h0Zm39.11-14.57c1.51,0,2.65,.81,3.72,1.74,2.14,1.88,3.72,4.24,5.21,6.68,2.14,3.52,3.94,7.21,5.51,11.04,.2,.48,.36,1,.45,1.52,.2,1.25-.19,2.26-1.4,2.67-1.27,.44-1.87-.46-2.29-1.52-1.84-4.69-3.97-9.24-6.7-13.45-.86-1.33-1.8-2.59-3.05-3.57-.94-.73-1.84-.76-2.81-.04-1.32,.98-2.28,2.3-3.16,3.67-2.65,4.07-4.73,8.46-6.54,12.99-.46,1.17-.92,2.4-2.5,1.9-1.24-.39-1.77-1.89-1.14-3.48,2.35-5.94,5.14-11.62,9.16-16.55,1.47-1.79,3.1-3.4,5.54-3.61h0Z"/>
        <path class="cls-1" d="M95.79,131.58c-1.25-.03-2.24-.67-3.15-1.49-1.69-1.52-2.97-3.39-4.15-5.33-2.46-4.07-4.44-8.4-6.12-12.88-.28-.75-.57-1.52-.34-2.34,.25-.86,.68-1.57,1.64-1.68,.94-.1,1.38,.53,1.67,1.34,1.03,2.85,2.17,5.65,3.47,8.36,1.3,2.73,2.63,5.44,4.54,7.78,1.83,2.24,3.04,2.29,4.84,.05,2.89-3.61,4.7-7.86,6.51-12.11,.58-1.36,1.06-2.77,1.61-4.15,.32-.78,.79-1.42,1.73-1.26,.93,.15,1.4,.82,1.57,1.73,.11,.58,.07,1.17-.14,1.73-2.16,5.78-4.68,11.38-8.3,16.36-.78,1.06-1.66,2.04-2.7,2.84-.79,.63-1.66,1.07-2.69,1.05h0Z"/>
        <path class="cls-1" d="M117.35,119.92c0,3.04,.02,6.08,0,9.12,0,1.75-.64,2.57-1.87,2.53-1.2-.04-1.87-.94-1.87-2.61,0-6.14,0-12.28,0-18.42,0-1.69,.66-2.61,1.84-2.64,1.21-.04,1.9,.9,1.91,2.71,.02,3.1,0,6.19,0,9.29Z"/>
        <g>
          <path class="cls-1" d="M123.77,119.33c0-2.08-.07-3.77-.13-5.31h2.66l.13,2.79h.07c1.21-1.98,3.13-3.16,5.78-3.16,3.93,0,6.89,3.33,6.89,8.27,0,5.85-3.56,8.74-7.4,8.74-2.15,0-4.04-.94-5.01-2.56h-.07v8.84h-2.93v-17.62Zm2.93,4.34c0,.44,.07,.84,.13,1.21,.54,2.05,2.32,3.46,4.44,3.46,3.13,0,4.94-2.56,4.94-6.29,0-3.26-1.71-6.05-4.84-6.05-2.02,0-3.9,1.45-4.47,3.67-.1,.37-.2,.81-.2,1.21v2.79Z"/>
          <path class="cls-1" d="M142.9,106.42h2.96v23.87h-2.96v-23.87Z"/>
          <path class="cls-1" d="M159.84,130.29l-.24-2.05h-.1c-.91,1.28-2.66,2.42-4.98,2.42-3.3,0-4.98-2.32-4.98-4.67,0-3.93,3.5-6.09,9.78-6.05v-.34c0-1.34-.37-3.77-3.7-3.77-1.51,0-3.09,.47-4.24,1.21l-.67-1.95c1.34-.87,3.3-1.45,5.35-1.45,4.98,0,6.19,3.4,6.19,6.66v6.09c0,1.41,.07,2.79,.27,3.9h-2.69Zm-.44-8.31c-3.23-.07-6.89,.5-6.89,3.67,0,1.92,1.28,2.82,2.79,2.82,2.12,0,3.46-1.34,3.93-2.72,.1-.3,.17-.64,.17-.94v-2.82Z"/>
          <path class="cls-1" d="M170.47,109.34v4.67h4.24v2.25h-4.24v8.78c0,2.02,.57,3.16,2.22,3.16,.77,0,1.35-.1,1.72-.2l.13,2.22c-.57,.24-1.48,.4-2.62,.4-1.38,0-2.49-.44-3.19-1.24-.84-.87-1.14-2.32-1.14-4.24v-8.88h-2.52v-2.25h2.52v-3.9l2.89-.77Z"/>
          <path class="cls-1" d="M187.04,130.29l-.24-2.05h-.1c-.91,1.28-2.66,2.42-4.98,2.42-3.3,0-4.98-2.32-4.98-4.67,0-3.93,3.5-6.09,9.78-6.05v-.34c0-1.34-.37-3.77-3.7-3.77-1.51,0-3.09,.47-4.24,1.21l-.67-1.95c1.34-.87,3.3-1.45,5.35-1.45,4.98,0,6.19,3.4,6.19,6.66v6.09c0,1.41,.07,2.79,.27,3.9h-2.69Zm-.44-8.31c-3.23-.07-6.89,.5-6.89,3.67,0,1.92,1.28,2.82,2.79,2.82,2.12,0,3.46-1.34,3.93-2.72,.1-.3,.17-.64,.17-.94v-2.82Z"/>
        </g>
        <path class="cls-2" d="M113.61,102.75s16.59-16.01,35.95-24.16c14.88-6.27,25.55,.04,29.69,3.3,.77,.61,1.9,.05,1.9-.93v-.03s0-.09,0-.13c-.06-.44-.27-3.07,3.33-2.66s9.08,.19,9.87,.16c.07,0,.14,0,.21,.01,.53,.08,2.72,.5,2.46,2.1s-1.36,8.48-1.71,10.67c-.07,.41,.09,.82,.41,1.08l10.91,8.92c.77,.63,1.42,1.38,1.92,2.24,1.44,2.45,3.49,7.4-1.27,10.04-5.57,3.09-10.25,1.98-11.47,1.6-.15-.05-.3,.07-.28,.23,.15,1.62,1.07,8.81,5.86,15.49,5.44,7.58,4.83,14.98-1.06,21.48s-13.65,7.76-25.22,6.21c-.87-.12-1.75-.16-2.62-.08-7.81,.7-11.34,4.77-24.72-.09-3.39-1.21-30.41,8.31-31.16-21.38"/>
        <circle class="cls-1" cx="113.51" cy="102.8" r="1.06"/>
        <circle class="cls-1" cx="116.61" cy="136.82" r="1.06"/>
      </g>
    </g>
  </g>
</svg>