<?xml version="1.0" encoding="UTF-8"?>
<svg id="Capa_2" data-name="Capa 2" xmlns="http://www.w3.org/2000/svg" viewBox="0 0 236.44 236.44">
  <defs>
    <style>
      .cls-1 {
        fill: #fff;
      }

      .cls-2 {
        fill: #e1251b;
      }
    </style>
  </defs>
  <g id="Capa_1-2" data-name="Capa 1">
    <g id="dvivienda">
      <rect class="cls-2" width="236.44" height="236.44" rx="33.61" ry="33.61"/>
      <g id="Capa_2-2" data-name="Capa 2">
        <g id="Capa_1-2" data-name="Capa 1-2">
          <path class="cls-1" d="M118.3,190.65c-7.47-.05-14.9-1.08-22.1-3.07-24,5.31-42.5-4.53-49.95-16.65-6.44-10.58-5.05-24.15,3.41-33.21,5.15-6.59,8.39-14.47,9.35-22.79h-3.26c-10.91,.54-19.48-2.97-21.81-8.96-1.56-3.94-1.17-10.47,9.3-19.48,26.34-21.81,60.71-40.7,75.08-40.7,6.86,0,18.74,4.43,32.96,12.17-.21-1.72,.24-3.46,1.27-4.87,1.74-1.82,4.22-2.72,6.72-2.43h13c2.55-.27,5.08,.69,6.82,2.58,1.59,3.12,1.68,6.79,.24,9.98-.92,3.74-1.56,7.55-1.9,11.39,2.58,1.9,10.91,8.08,15.82,12.27h0c10.47,8.81,10.86,15.34,9.3,19.48-2.34,5.99-10.91,9.49-21.81,8.96h-3.26c.94,8.34,4.2,16.25,9.4,22.83,8.42,9.05,9.79,22.6,3.36,33.16-7.25,11.73-25.51,21.57-49.86,16.26-7.19,1.98-14.6,3.01-22.06,3.07Zm-21.76-6.77h.49c6.99,1.96,14.21,2.97,21.47,3.02,7.28-.04,14.51-1.06,21.52-3.02h.93c22.74,5.11,39.78-3.8,46.59-14.95,5.77-9.3,4.49-21.34-3.12-29.21-6.13-7.69-9.72-17.1-10.27-26.92v-1.95h1.95l5.26,.29c9.2,.44,16.51-2.24,18.26-6.67s-1.61-9.01-8.52-14.85h0c-5.75-4.87-16.31-12.61-16.41-12.71l-.83-.58v-.97c.32-4.38,1-8.73,2.04-13,.73-2.82,1.27-5.65,.24-6.96-1.09-.97-2.55-1.4-3.99-1.17h-12.9c-1.41-.16-2.81,.31-3.85,1.27-.66,1.14-.77,2.52-.29,3.75v.54c0,.39,.24,.83,.34,1.27l.97,4.04-3.6-2.04c-14.85-8.52-27.8-13.58-34.52-13.63-12.03,.05-44.74,16.6-72.74,40.22-6.91,5.84-9.74,11.25-8.28,15.24s9.06,7.11,18.26,6.67l7.21-.39v1.95c-.49,9.76-3.99,19.14-10.03,26.83-7.59,7.88-8.89,19.89-3.16,29.21,6.82,11.15,23.86,20.06,46.55,14.95l.44-.19Z"/>
        </g>
      </g>
    </g>
  </g>
</svg>
