<?xml version="1.0" encoding="UTF-8"?>
<svg id="Capa_1" data-name="Capa 1" xmlns="http://www.w3.org/2000/svg" viewBox="0 0 2504.18 2318">
  <defs>
    <style>
      .cls-1 {
        fill: #388e3c;
      }

      .cls-2 {
        fill: #7fc481;
      }

      .cls-3 {
        fill: #1b5e20;
      }

      .cls-4 {
        fill: #a3d3a5;
      }

      .cls-5 {
        fill: #1b5d1f;
      }
    </style>
  </defs>
  <g>
    <rect class="cls-3" x="154.03" y="392.57" width="2196.12" height="1225.03" transform="translate(-299.96 593.9) rotate(-23.92)"/>
    <path class="cls-2" d="M2168.59,1125.2L725.89,1765.02c-42.04-94.79-152.96-137.55-247.75-95.52l-243.71-549.54c94.79-42.04,137.55-152.96,95.52-247.75L1772.64,232.39c42.04,94.79,152.96,137.55,247.75,95.52l243.71,549.54c-94.79,42.04-137.55,152.96-95.52,247.75Z"/>
    <circle class="cls-5" cx="1868.01" cy="731.93" r="122.78"/>
    <circle class="cls-5" cx="638.65" cy="1277.26" r="122.78"/>
    <circle class="cls-5" cx="1249.26" cy="998.7" r="359.97"/>
  </g>
  <g>
    <rect class="cls-1" x="308.07" y="1092.98" width="2196.12" height="1225.03"/>
    <path class="cls-4" d="M2195.23,2186.85H617.02c0-103.69-84.06-187.75-187.75-187.75v-601.16c103.69,0,187.75-84.06,187.75-187.75h1578.21c0,103.69,84.06,187.75,187.75,187.75v601.16c-103.69,0-187.75,84.06-187.75,187.75Z"/>
    <circle class="cls-1" cx="2079.9" cy="1705.49" r="122.78"/>
    <circle class="cls-1" cx="735.01" cy="1705.61" r="122.78"/>
    <circle class="cls-1" cx="1406.12" cy="1698.52" r="359.97"/>
  </g>
</svg>
