<?xml version="1.0" encoding="UTF-8"?>
<svg id="Capa_2" data-name="Capa 2" xmlns="http://www.w3.org/2000/svg" viewBox="0 0 237.44 237.44">
  <defs>
    <style>
      .cls-1 {
        fill: #c8d300;
      }

      .cls-2 {
        fill: #fff;
        stroke: #000;
        stroke-miterlimit: 10;
      }

      .cls-3 {
        fill: #007937;
      }

      .cls-4 {
        fill: #154634;
      }
    </style>
  </defs>
  <g id="Capa_1-2" data-name="Capa 1">
    <g id="falabella">
      <rect class="cls-2" x=".5" y=".5" width="236.44" height="236.44" rx="33.61" ry="33.61"/>
      <g>
        <path class="cls-3" d="M148.08,202.31c-28.15,0-109.6-22.85-109.6-50.99s81.46-50.88,109.6-50.88,50.88,22.74,50.88,50.88-22.74,50.99-50.88,50.99"/>
        <path class="cls-1" d="M123.03,119.53c-18.32-11.04-62.36-58.06-51.21-76.38,11.15-18.32,73.18-.99,91.39,10.15,18.32,11.15,24.17,34.99,13.02,53.2-11.15,18.32-34.88,24.17-53.2,13.02"/>
        <path class="cls-4" d="M107.57,107.27c5.85,5.41,11.26,9.82,15.45,12.36,17.77,10.82,40.62,5.63,52.21-11.37-7.84-4.86-17.11-7.84-27.04-7.84-9.38,0-24.5,2.43-40.62,6.84"/>
      </g>
    </g>
  </g>
</svg>