<?xml version="1.0" encoding="UTF-8"?>
<svg id="Capa_2" data-name="Capa 2" xmlns="http://www.w3.org/2000/svg" viewBox="0 0 237.44 237.44">
  <defs>
    <style>
      .cls-1 {
        fill: #fff;
        stroke: #000;
        stroke-miterlimit: 10;
      }

      .cls-2 {
        fill: #ee252a;
      }
    </style>
  </defs>
  <g id="Capa_1-2" data-name="Capa 1">
    <g id="finandina">
      <rect class="cls-1" x=".5" y=".5" width="236.44" height="236.44" rx="33.61" ry="33.61"/>
      <g id="Grupo_3" data-name="Grupo 3">
        <path id="Trazado_23" data-name="Trazado 23" class="cls-2" d="M118.7,39.28c-29.98,0-57.41,16.87-70.93,43.63,6.5,7.12,27.5,23.56,51.25,17.17,5.73-1.59,11.09-4.31,15.75-8.01,15.19-11.59,24.49-28.83,65.38-23.67-15.07-18.45-37.64-29.14-61.46-29.12"/>
        <path id="Trazado_24" data-name="Trazado 24" class="cls-2" d="M140.48,164.36c-19.97,8.98-39.32,21.64-86.86-.09h0l.03,.04c25.18,35.94,74.73,44.66,110.67,19.48,8.59-6.02,15.91-13.68,21.52-22.54-20.08-6.67-32.83-2.5-45.35,3.12"/>
        <path id="Trazado_25" data-name="Trazado 25" class="cls-2" d="M158.58,90.53c18.72-4.22,22.85-13.93,22.09-18.82-4.78-.63-9.59-.93-14.41-.88-27.16-.05-45.92,21.23-46.36,21.63,4.06,.19,24.16,1.35,38.69-1.92"/>
        <path id="Trazado_26" data-name="Trazado 26" class="cls-2" d="M56.03,161.29c14.02,7.1,29.42,11.06,45.12,11.62h0c12.43-.5,24.57-3.85,35.5-9.78-8.74-3.13-20.08-7.95-37.11-7.85-22.1,.14-35.89,2.14-43.53,6.01"/>
        <path id="Trazado_27" data-name="Trazado 27" class="cls-2" d="M135.72,117.46c-3.83,2.98-8.27,5.08-13,6.13,37.19,2.64,65.05-15.25,68.59-35.7-1.84-.95-9.74-8.93-55.58,29.56"/>
        <path id="Trazado_28" data-name="Trazado 28" class="cls-2" d="M193.25,91.2s0,.03,0,.04c-4.55,26.05-42,39.69-84.29,33.8-24.18-3.37-47.18-12.56-67.03-26.77v.02h0c-4.16,15.7-3.42,32.3,2.11,47.58,.98,.46,21.8,13.89,94.64-1.79,18.09-3.68,36.81-2.9,54.53,2.27,6.58-17.8,6.6-37.35,.05-55.16"/>
      </g>
    </g>
  </g>
</svg>