<?xml version="1.0" encoding="UTF-8"?>
<svg id="Capa_2" data-name="Capa 2" xmlns="http://www.w3.org/2000/svg" viewBox="0 0 237.44 237.44">
  <defs>
    <style>
      .cls-1 {
        fill: #ff6200;
      }

      .cls-2 {
        fill: #fff;
        stroke: #000;
        stroke-miterlimit: 10;
      }
    </style>
  </defs>
  <g id="Capa_1-2" data-name="Capa 1">
    <g id="itau">
      <rect class="cls-2" x=".5" y=".5" width="236.44" height="236.44" rx="33.61" ry="33.61"/>
      <g>
        <path class="cls-1" d="M108.78,42.47c-4.4,.11-7.62,.26-13.53,.64-2.73,.16-5.72,.4-7.82,.61-.53,.06-1.63,.16-2.45,.24-3.42,.33-8.51,.98-10.65,1.34-.45,.08-1.12,.18-1.49,.24s-1.02,.16-1.44,.24-1.13,.21-1.59,.29c-1.59,.27-4.28,.82-5.8,1.18-.42,.11-1.18,.29-1.68,.4s-.96,.22-1.01,.23c-2.83,.68-5.47,1.96-7.75,3.77-2.24,1.91-3.93,4.39-4.9,7.17-.15,.42-.32,.85-.35,.96-.16,.36-.87,3.43-1.38,5.95-.08,.42-.21,1.04-.29,1.39s-.18,.96-.25,1.34-.13,.87-.18,1.05c-.14,.55-.73,4.29-1.11,7.01-.36,2.63-.61,4.54-.82,6.48-.11,.96-.21,1.88-.23,2.06s-.11,1.11-.2,2.06-.19,2.11-.25,2.59c-.2,1.76-.7,9.45-.96,14.87-.19,4.02-.32,12.63-.25,17.32,.07,5.85,.21,11.08,.34,12.91,.05,.74,.14,2.29,.2,3.45s.13,2.65,.18,3.31c.22,3.32,.39,5.5,.48,6.19,.05,.42,.16,1.55,.24,2.48s.19,2.06,.24,2.49,.16,1.36,.24,2.07c.24,2.27,.42,3.76,.58,4.75,.08,.53,.21,1.43,.29,2.01,.28,2.11,.61,4.16,.96,6.05,.08,.42,.2,1.13,.29,1.59,.16,.96,.54,2.87,.81,4.08,.92,4.23,1.33,5.5,2.41,7.58,.26,.51,.54,1.01,.85,1.49,.16,.24,.4,.59,.53,.77,.86,1.13,1.86,2.15,2.98,3.02,.14,.11,.42,.32,.6,.45,.12,.11,.27,.2,.42,.27,.08,.03,.15,.08,.21,.14,.38,.36,3.01,1.62,4.14,1.96,.21,.07,.47,.15,.58,.2,.25,.11,1.66,.47,3.36,.85,.74,.17,1.5,.35,1.68,.4,.44,.11,3.22,.67,5.33,1.05,1.21,.22,3.56,.6,5.04,.81,.56,.08,1.27,.18,1.59,.24,1.16,.2,5.96,.76,8.97,1.05,1.08,.11,2.42,.23,2.98,.29,.9,.1,1.82,.17,6.24,.49,.66,.05,2.17,.13,3.36,.19s2.85,.14,3.7,.19c6.83,.39,26.37,.39,33.1,0,.84-.06,2.5-.13,3.7-.19,2.04-.1,2.79-.14,6-.39,4.11-.32,10.14-.9,12.19-1.19,.59-.09,1.59-.22,2.26-.32,2.45-.32,5.8-.83,7.73-1.18,2.1-.39,4.88-.96,5.33-1.05,.18-.05,.94-.23,1.68-.4,1.66-.38,3.1-.74,3.36-.85,.32-.11,.64-.23,.96-.33,.79-.26,3.4-1.5,3.62-1.71,.13-.12,.27-.23,.42-.32,.64-.39,1.23-.84,1.77-1.35,.76-.68,1.46-1.43,2.09-2.23,.09-.13,.32-.46,.51-.72,.14-.17,.26-.35,.36-.55,.09-.21,.21-.41,.33-.6,.19-.3,.35-.62,.49-.96,.07-.17,.14-.34,.23-.51,.18-.24,.85-2.15,1.14-3.23,.45-1.68,1.3-5.64,1.59-7.52,.08-.48,.16-.93,.19-1.01,.09-.21,.61-3.5,1.09-6.86,.11-.74,.21-1.48,.24-1.63,.08-.44,.42-3.39,.58-4.94,.08-.77,.18-1.65,.24-1.97s.16-1.35,.24-2.3,.18-2.12,.23-2.59,.14-1.57,.2-2.45,.14-1.95,.19-2.4,.16-2.11,.24-3.7,.18-3.53,.24-4.32c.43-6.98,.43-25.29,0-32.5-.05-.82-.13-2.42-.19-3.55s-.14-2.63-.19-3.31-.18-2.39-.29-3.79-.21-2.72-.24-2.93-.11-1.14-.19-2.06-.16-1.78-.19-1.91-.13-1.02-.24-1.97c-.25-2.29-.56-4.83-.64-5.12-.03-.13-.13-.9-.24-1.69-.47-3.59-1.34-8.6-2.09-11.99-.11-.48-.28-1.26-.38-1.73-.18-.91-.41-1.8-.69-2.69-.05-.11-.13-.36-.2-.58-.43-1.19-.94-2.34-1.55-3.45-.04-.06-.34-.51-.67-1.01-.99-1.35-2.16-2.57-3.47-3.62-2.07-1.53-4.37-2.55-7.35-3.29l-1.5-.37c-.35-.11-1.07-.26-2.59-.58l-1.3-.28c-1.85-.45-7.88-1.43-11.79-1.93-.79-.1-1.56-.2-1.73-.24-.29-.06-1.68-.2-4.51-.48-.79-.08-1.87-.19-2.4-.24s-1.48-.14-2.11-.2l-2.3-.18c-2.15-.18-8.12-.53-11.42-.67-6.37-.28-18.16-.36-25.49-.18h0Zm-42.27,64.84c.19,.09,.4,.16,.61,.2,.64,.18,1.24,.46,1.79,.83,.63,.5,1.19,1.1,1.65,1.76,.06,.14,.14,.27,.23,.4,.08,.14,.15,.28,.19,.43,.04,.17,.11,.33,.2,.48,.12,.18,.27,1.33,.27,2.17,.02,.73-.08,1.45-.29,2.15-.52,1.19-.77,1.59-1.42,2.27-.46,.53-1.04,.94-1.68,1.22-.47,.27-1,.46-1.54,.54-.21,.01-.41,.06-.61,.14-.07,.11-2.15,.11-2.15,0-.17-.09-.36-.14-.55-.14-.28-.04-.56-.1-.83-.19-.21-.09-.42-.18-.64-.26-.13-.04-.26-.1-.39-.17-.1-.08-.22-.15-.34-.2-.56-.28-1.71-1.55-2.04-2.26-.18-.38-.35-.74-.4-.82-.32-.65-.38-3.63-.08-4.32,.09-.18,.21-.49,.28-.67,.04-.13,.1-.26,.17-.38,.1-.14,.18-.28,.25-.43,.18-.36,1.33-1.59,1.49-1.59,.08-.03,.15-.08,.19-.15,.51-.36,1.08-.63,1.68-.8,.23-.05,.45-.12,.67-.21,.19-.06,.38-.1,.58-.12,.57-.06,2.55,.03,2.68,.11h0s0,.01,0,.01Zm104.56,6.69v4.84h-18.63v-6.49l1.04-.16c2.29-.35,3.72-.6,3.82-.64,.35-.09,.7-.15,1.05-.18s.71-.1,1.05-.19c.33-.09,.67-.16,1.01-.19,.48-.05,.97-.14,1.44-.25,.29-.07,.89-.17,1.34-.23,.34-.04,.68-.1,1.01-.18,.35-.09,.7-.16,1.05-.2,.4-.04,.81-.11,1.2-.2,.18-.05,.87-.18,1.54-.29s1.53-.25,1.91-.32,.82-.13,.96-.14h.21v4.82h0Zm-79.46,4.28v5.73h9.6v8.54h-9.61l.04,8.89c.03,9.59,0,9.11,.53,10.3,.5,1,1.39,1.75,2.47,2.07,.15,.03,.29,.09,.42,.17,.18,.14,4.07,.14,4.24,0,.25-.1,.52-.16,.79-.17l.64-.07v8.42l-.26,.11c-.94,.23-1.9,.38-2.87,.46-2.16,.25-6.09,.28-6.32,.04-.11-.06-.23-.09-.35-.09-.69-.06-1.38-.18-2.05-.38-.19-.09-.38-.15-.59-.19-.2-.04-.39-.11-.58-.19-.15-.09-.31-.16-.48-.2-.15-.04-.3-.1-.43-.18-.12-.09-.25-.17-.39-.24-.53-.25-1.02-.56-1.46-.93-.16-.15-.34-.27-.53-.37-.1,0-.83-.81-1.4-1.54-.52-.68-.96-1.43-1.32-2.21-.05-.13-.11-.26-.19-.38-.1-.21-.18-.44-.23-.67-.07-.28-.15-.55-.25-.82-.11-.31-.18-.63-.24-.96-.08-.4-.17-.8-.26-1.2-.07-.29-.11-3.67-.14-10.06l-.04-9.61h-5.55v-8.55h5.58v-9.68l.64-.07c.25-.02,.5-.06,.74-.14,.34-.1,.7-.16,1.05-.19,.36-.03,.71-.1,1.05-.2,.44-.11,.89-.18,1.34-.23,.45-.05,.9-.13,1.34-.24,.23-.08,.47-.12,.72-.13,.45-.05,.9-.13,1.34-.22,.96-.21,1.93-.36,2.91-.44,.04,.02,.07,2.63,.07,5.79h.03Zm31.81,4.84c1.34,.08,2.87,.25,2.98,.33,.17,.07,.35,.12,.53,.13,.92,.19,1.82,.46,2.69,.81,.83,.34,1.63,.75,2.4,1.21,.12,.09,.25,.17,.38,.23,.33,.22,.64,.46,.93,.73,.25,.23,.5,.44,.77,.64,.67,.71,1.29,1.46,1.85,2.26,.05,.11,.11,.22,.19,.32,.4,.66,.75,1.35,1.05,2.05,.04,.16,.11,.32,.18,.47,.1,.24,.19,.49,.25,.74,.03,.15,.08,.3,.14,.43,.09,.22,.15,.44,.19,.67,.04,.24,.1,.48,.16,.72,.09,.3,.15,.6,.2,.91,.11,.64,.14,3.02,.18,13.6l.04,12.84h-10.48v-1.13c0-.61-.04-1.51-.08-1.98l-.06-.86-.28,.38c-.74,.87-1.56,1.66-2.47,2.35-1.26,.83-1.59,1.03-1.94,1.14-.22,.06-.43,.14-.64,.25-.25,.11-.52,.19-.79,.24-.22,.04-.43,.11-.64,.19-.49,.36-6.53,.36-7.01,0-.25-.09-.51-.16-.77-.19-.32-.05-.65-.14-.96-.25-.15-.07-.57-.24-.9-.38-.39-.17-.76-.35-1.13-.56-.25-.16-.51-.31-.78-.45-.4-.22-.54-.35-1.63-1.44s-1.27-1.27-1.27-1.38c-.07-.17-.16-.32-.27-.47-.19-.28-.35-.58-.49-.88-.11-.27-.27-.59-.33-.72-.11-.25-.19-.5-.25-.77-.04-.22-.11-.43-.19-.64-.11-.13-.29-1.5-.29-2.09,.02-.21-.02-.42-.11-.61-.11-.11-.09-.5,.21-2.81,.03-.31,.09-.61,.18-.91,.08-.18,.14-.37,.18-.57,.15-.57,.37-1.12,.65-1.64,.09-.16,.2-.38,.26-.5s.13-.22,.18-.22,.07-.06,.07-.12c.36-.57,.77-1.11,1.24-1.59,.06-.06,.11-.14,.13-.22,.05-.11,.14-.19,.26-.23,.11-.03,.19-.09,.19-.12,0-.1,1.61-1.36,2.16-1.68,.39-.24,1.27-.69,2.55-1.31,.18-.1,1.98-.67,2.77-.89,.41-.11,.83-.2,1.25-.26,.28-.04,.55-.1,.82-.18,.43-.1,.86-.16,1.3-.18,.66-.06,1.48-.15,1.82-.2,1.36-.2,6.15-.16,6.66,.05,.17,.08,.18,.04,.11-.78,0-.31-.06-.61-.14-.9-.08-.12-.13-.26-.14-.4-.18-.59-.44-1.15-.78-1.66-.36-.48-.79-.92-1.26-1.3-.13-.05-.25-.13-.36-.22-.46-.32-.97-.56-1.52-.69-.2-.04-.36-.11-.36-.14,0-.42-6.2-.49-8.06-.08-.24,.05-.8,.15-1.25,.23-.34,.05-.68,.13-1.01,.23-.25,.09-.51,.15-.77,.19s-.52,.11-.77,.19c-.28,.1-.56,.18-.85,.24-.26,.05-.52,.13-.77,.23-.18,.09-.37,.16-.56,.21-.2,.04-.39,.11-.58,.2-.18,.08-.38,.15-.58,.19-.29,.07-.57,.16-.83,.29-.13,.07-.27,.13-.41,.18-.03,0-.05-2.01-.05-4.46,0-3.46,.03-4.46,.12-4.55,.19-.1,.39-.18,.6-.22,.2-.04,.39-.1,.57-.18,.23-.1,.47-.18,.72-.24,.25-.06,.49-.14,.72-.24,.21-.09,.43-.16,.66-.19,.25-.04,.49-.11,.72-.2,.29-.09,.58-.17,.87-.23,.31-.06,.61-.13,.91-.2,.11-.03,.64-.11,1.2-.19,.44-.05,.87-.13,1.3-.23,.56-.17,5.58-.49,6.72-.42l1.54,.09h.02Zm-52.93,20.01v19.1h-11.23v-38.19h11.23v19.1h0Zm84.83-7.2c0,11.36,.05,13.56,.28,13.87,.07,.13,.12,.27,.14,.42,.13,.72,.76,1.76,1.47,2.48,.27,.3,.58,.55,.93,.76,.14,.03,.25,.09,.25,.12,.23,.14,.48,.25,.75,.32,.62,.19,1.26,.27,1.91,.23,.47,.02,.93-.02,1.39-.11,.21-.1,.44-.17,.66-.23,.34-.11,.66-.27,.96-.46,.54-.34,1.54-1.27,1.54-1.42,.07-.17,.17-.32,.29-.46,.12-.14,.22-.3,.29-.48,.04-.16,.1-.31,.18-.45,.12-.23,.2-.47,.26-.72,.01-.17,.06-.32,.14-.47,.24-.32,.28-2.23,.28-13.5v-11.79h11.23v38.19h-5.33c-4.14,0-5.35-.03-5.42-.12-.08-.67-.11-1.34-.11-2.02,0-.63-.03-1.26-.11-1.89-.04,0-.15,.11-.27,.26-.8,.98-1.7,1.87-2.71,2.65-.46,.3-.95,.57-1.45,.79-.39,.19-.83,.41-.96,.48-.26,.11-.54,.18-.82,.24-.22,.03-.44,.1-.64,.19-.1,.14-1.79,.29-3.47,.29s-2.99-.11-3.39-.28c-.27-.1-.54-.18-.82-.25-.25-.05-.49-.14-.72-.24-.16-.09-.32-.15-.5-.2-.23-.06-.41-.14-.41-.18s-.17-.12-.39-.19-.38-.15-.38-.19-.11-.11-.23-.17c-.83-.37-2.7-2.13-3.48-3.26-.55-.81-1.01-1.68-1.37-2.58-.07-.22-.15-.43-.24-.64-.1-.25-.18-.51-.24-.77-.04-.22-.11-.43-.19-.64-.1-.33-.16-.67-.19-1.01-.04-.35-.11-.7-.22-1.04-.09-.14-.12-3.57-.14-13.8l-.03-13.6h11.24l.02,11.87h0Z"/>
        <path class="cls-1" d="M122.16,145.24c-.36,.03-.71,.08-1.05,.17-.25,.09-.51,.17-.77,.21-.31,.06-.61,.14-.91,.26-1.44,.64-2.14,1.04-2.62,1.54-.49,.54-.84,1.21-1,1.93-.02,.19-.07,.37-.14,.54-.11,.22-.07,.9,.11,1.79,.19,.96,.96,2.15,1.64,2.5,1.21,.64,1.44,.72,2.11,.83,1.21,.18,3.5,.08,4.01-.19,.09-.05,.44-.21,.79-.36,.35-.17,.69-.36,1.01-.59,.21-.16,.45-.35,.54-.42,.54-.41,1.55-2.08,1.69-2.77,.03-.16,.08-.31,.16-.45,.07-.09,.11-.96,.13-2.55l.04-2.42-.54-.07c-1.74-.08-3.48-.06-5.21,.04h.02s0,.01,0,.01Z"/>
      </g>
    </g>
  </g>
</svg>