<?xml version="1.0" encoding="UTF-8"?>
<svg id="Capa_2" data-name="Capa 2" xmlns="http://www.w3.org/2000/svg" xmlns:xlink="http://www.w3.org/1999/xlink" viewBox="0 0 236.44 236.44">
  <defs>
    <style>
      .cls-1 {
        fill: #fff;
      }

      .cls-2 {
        fill: #dd0059;
      }

      .cls-3 {
        clip-path: url(#clippath);
      }

      .cls-4 {
        fill: none;
      }
    </style>
    <clipPath id="clippath">
      <rect class="cls-4" width="236.44" height="236.44" rx="33.61" ry="33.61"/>
    </clipPath>
  </defs>
  <g id="Capa_1-2" data-name="Capa 1">
    <g id="movii">
      <rect class="cls-2" width="236.44" height="236.44" rx="33.61" ry="33.61"/>
      <g class="cls-3">
        <g id="Grupo_1036" data-name="Grupo 1036">
          <g id="Logo_Flat" data-name="Logo Flat">
            <path id="Trazado_4" data-name="Trazado 4" class="cls-1" d="M118.21,112.55V-49.3c.34-9.4-7.01-17.29-16.41-17.63-9.4-.34-17.29,7.01-17.63,16.41,0,.24-.01,.48-.01,.72V112.08c-.33,9.4,7.02,17.29,16.42,17.63s17.29-7.02,17.63-16.42c0-.25,.01-.49,.01-.74"/>
            <path id="Trazado_5" data-name="Trazado 5" class="cls-1" d="M33.24,129.61c-9.43,0-17.07-7.65-17.07-17.08,0-.43,.02-.85,.05-1.28V-49.82c0-9.4,7.62-17.02,17.02-17.02s17.02,7.62,17.02,17.02V111.26c.71,9.4-6.34,17.6-15.75,18.31-.42,.03-.85,.05-1.28,.05"/>
            <path id="Trazado_6" data-name="Trazado 6" class="cls-1" d="M156.05,127.19c-4.23-2.05-9.33-.29-11.38,3.94-1.97,4.06-.43,8.95,3.51,11.15,6.1,3.08,11.24,7.78,14.87,13.58-70.85,39.05-157.75,34.4-224.03-11.99-3.86-2.69-9.17-1.75-11.86,2.11s-1.75,9.17,2.11,11.86C.09,207.43,92.79,212.92,168.98,172.06c1.08,7.48-.14,15.12-3.5,21.89-2.16,4.18-.53,9.32,3.65,11.48,4.18,2.16,9.32,.53,11.48-3.65,.09-.17,.17-.34,.25-.52,13-27.33,2.05-60.04-24.79-74.04"/>
          </g>
        </g>
      </g>
    </g>
  </g>
</svg>