<?xml version="1.0" encoding="UTF-8"?>
<svg id="Capa_2" data-name="Capa 2" xmlns="http://www.w3.org/2000/svg" viewBox="0 0 237.44 237.44">
  <defs>
    <style>
      .cls-1 {
        fill: #200020;
      }

      .cls-2 {
        fill: #ca0080;
      }

      .cls-3 {
        fill: #fff;
        stroke: #000;
        stroke-miterlimit: 10;
      }
    </style>
  </defs>
  <g id="Capa_1-2" data-name="Capa 1">
    <rect class="cls-3" x=".5" y=".5" width="236.44" height="236.44" rx="33.61" ry="33.61"/>
    <path class="cls-2" d="M65.45,56.59h-20.97c-2.45,0-4.43,1.98-4.43,4.43v17.82c0,2.45,1.98,4.43,4.43,4.43h20.97c2.45,0,4.43-1.98,4.43-4.43v-17.82c0-2.45-1.98-4.43-4.43-4.43Z"/>
    <path class="cls-1" d="M193.62,56.59h-18.09c-2.45,0-4.43,2.03-4.43,4.43v72.3c0,1.49-1.92,2.03-2.61,.69L126.44,58.51c-.69-1.23-1.92-1.92-3.42-1.92h-30.09c-2.45,0-4.43,2.03-4.43,4.43v115.52c0,2.45,2.03,4.43,4.43,4.43h18.09c2.45,0,4.43-2.03,4.43-4.43V102.06c0-1.49,1.92-2.03,2.61-.69l43.22,77.74c.69,1.23,1.92,1.92,3.42,1.92h28.76c2.45,0,4.43-2.03,4.43-4.43V60.97c0-2.45-2.03-4.43-4.43-4.43h.16v.05Z"/>
  </g>
</svg>