<?xml version="1.0" encoding="UTF-8"?>
<svg id="Capa_2" data-name="Capa 2" xmlns="http://www.w3.org/2000/svg" viewBox="0 0 236.44 236.44">
  <defs>
    <style>
      .cls-1 {
        fill: #fff;
      }

      .cls-2 {
        fill: #8f0dc0;
      }
    </style>
  </defs>
  <g id="Capa_1-2" data-name="Capa 1">
    <g id="nu">
      <rect class="cls-2" width="236.44" height="236.44" rx="33.61" ry="33.61"/>
      <g>
        <path class="cls-1" d="M61.49,78.58c5.62-5.9,13.06-9.35,21.82-9.35,17.05,0,28.35,12.45,30.51,31.09,.7,6.06,.69,14.59,.69,24.48,0,1.01,0,2.04,0,3.08v37.04h-23.44v-27.4s-.05-23.45-.19-27.83c-.63-19.09-11.93-31.08-29.38-31.09-5.27,5.56-8.09,12.37-8.5,22.77-.06,1.45-.04,6.59-.02,13.37,0,3.51,.02,7.46,.02,11.56,.02,17.86,0,38.63,0,38.63H29.54v-42.17c0-1.44-.03-2.9-.05-4.36-.05-2.94-.11-5.91,.05-8.84,.26-4.89,1.11-9.71,3.4-14.18,5.23-10.24,15.94-16.83,27.36-16.83,.4,0,.8,0,1.19,.03Z"/>
        <path class="cls-1" d="M206.91,126.88c.16-2.94,.11-5.9,.05-8.84-.03-1.46-.05-2.92-.05-4.36v-42.17h-23.44s-.02,20.77,0,38.63c0,4.1,.01,8.05,.02,11.56,.02,6.78,.03,11.92-.02,13.37-.42,10.4-3.24,17.2-8.5,22.77-17.45-.01-28.75-12.01-29.38-31.09-.14-4.38-.2-15.26-.2-27.85v-27.4l-23.43,.02v37.04c0,1.04,0,2.07,0,3.08,0,9.89-.01,18.43,.69,24.48,2.16,18.65,13.46,31.09,30.51,31.09,8.75,0,16.2-3.45,21.82-9.35,.39,.02,.79,.03,1.19,.03,11.42,0,22.13-6.59,27.36-16.83,2.28-4.47,3.13-9.28,3.4-14.18Z"/>
      </g>
    </g>
  </g>
</svg>