<?xml version="1.0" encoding="UTF-8"?>
<svg id="Capa_2" data-name="Capa 2" xmlns="http://www.w3.org/2000/svg" viewBox="0 0 237.44 237.44">
  <defs>
    <style>
      .cls-1 {
        fill: #0f265c;
        fill-rule: evenodd;
      }

      .cls-2 {
        fill: #ffdc00;
      }

      .cls-3 {
        fill: #fff;
        stroke: #000;
        stroke-miterlimit: 10;
      }
    </style>
  </defs>
  <g id="Capa_1-2" data-name="Capa 1">
    <g id="pibank">
      <rect class="cls-3" x=".5" y=".5" width="236.44" height="236.44" rx="33.61" ry="33.61"/>
      <g>
        <g id="Group-16">
          <path class="cls-1" d="M78.54,183.85c-.27-.77-1.12-3.1-3.4-4.94-.51-.42-1.56-1.25-3.19-1.74-.35-.1-1.89-.54-3.87-.26-.61,.09-1.52,.22-2.57,.76-1.05,.54-1.75,1.23-2.15,1.68,.01-.64,.02-1.29,.03-1.94h-6.13v28.15h2.96c1.73,0,3.14-1.41,3.14-3.15v-6.38c.34,.4,.9,.97,1.71,1.45,.18,.11,.95,.55,2.18,.83,2.79,.63,5.14-.25,5.46-.37,.29-.12,1.67-.67,3.05-1.97,.29-.27,1.64-1.57,2.55-3.77,1.67-4.05,.42-7.79,.23-8.35Zm-5.52,3.96c0,.56-.06,2.32-1.47,3.64-1.36,1.28-3.06,1.26-3.53,1.24-.48-.01-2.06-.09-3.32-1.34-1.39-1.39-1.35-3.21-1.34-3.8,.02-.61,.05-2.19,1.28-3.47,1.31-1.37,3.04-1.41,3.49-1.41,.57,0,2.39,.08,3.71,1.55,1.24,1.37,1.19,3.03,1.18,3.59Z"/>
          <polygon id="Fill-4" class="cls-1" points="81.47 197.97 87.56 197.97 87.56 177.41 81.47 177.41 81.47 197.97"/>
          <path id="Fill-5" class="cls-1" d="M101.85,192.7c1.42,0,2.56-.45,3.46-1.36,.94-.9,1.38-2.14,1.38-3.66s-.45-2.75-1.38-3.66c-.89-.9-2.03-1.36-3.46-1.36s-2.56,.45-3.5,1.36c-.89,.9-1.34,2.14-1.34,3.66s.45,2.75,1.34,3.66c.93,.9,2.07,1.36,3.5,1.36m8.09-12.71c1.91,2.1,2.85,4.65,2.85,7.69s-.94,5.63-2.85,7.73c-1.91,2.1-4.19,3.13-6.87,3.13s-4.63-.82-6.06-2.51v1.93h-6.1v-28.15h3.02c1.7,0,3.07,1.39,3.07,3.11v6.41c1.42-1.69,3.45-2.51,6.06-2.51s4.96,1.07,6.87,3.17"/>
          <path id="Fill-7" class="cls-1" d="M125.04,192.7c1.42,0,2.6-.45,3.5-1.36,.89-.9,1.34-2.14,1.34-3.66s-.45-2.75-1.34-3.66c-.89-.9-2.07-1.36-3.5-1.36s-2.6,.45-3.5,1.36c-.89,.9-1.34,2.14-1.34,3.66s.45,2.75,1.34,3.66c.89,.9,2.07,1.36,3.5,1.36h0Zm4.84-15.3h6.1v20.56h-6.1v-1.93c-1.42,1.69-3.46,2.51-6.06,2.51s-4.96-1.03-6.87-3.13c-1.91-2.1-2.85-4.69-2.85-7.73s.94-5.59,2.85-7.69c1.91-2.1,4.19-3.17,6.87-3.17s4.63,.82,6.06,2.51v-1.93Z"/>
          <path id="Fill-9" class="cls-1" d="M156.64,179.09c1.46,1.52,2.19,3.58,2.19,6.25v12.62h-6.1v-11.72c0-2.43-1.46-3.74-3.54-3.74-2.32,0-3.78,1.44-3.78,4.23v11.22h-6.1v-20.56h6.1v1.93c1.22-1.69,3.17-2.51,5.81-2.51,2.15,0,3.98,.74,5.41,2.26"/>
          <path id="Fill-11" class="cls-1" d="M180.99,197.97h-6.91l-6.5-9.09v9.09h-6.1v-28.15h3.02c1.7,0,3.07,1.39,3.07,3.11v13.49l6.1-9h7.11l-7.4,10.28,7.6,10.28Z"/>
        </g>
        <circle class="cls-2" cx="118.72" cy="97.05" r="64.8"/>
      </g>
    </g>
  </g>
</svg>