<?xml version="1.0" encoding="UTF-8"?>
<svg id="Capa_2" data-name="Capa 2" xmlns="http://www.w3.org/2000/svg" viewBox="0 0 237.44 237.44">
  <defs>
    <style>
      .cls-1 {
        fill: #d9e0fa;
      }

      .cls-2, .cls-3 {
        fill: #fff;
      }

      .cls-4 {
        fill: #ff3c77;
      }

      .cls-5 {
        fill: #344ddd;
      }

      .cls-3 {
        stroke: #000;
        stroke-miterlimit: 10;
      }

      .cls-6 {
        fill: #3f59e2;
      }
    </style>
  </defs>
  <g id="Capa_1-2" data-name="Capa 1">
    <g id="powwi">
      <rect class="cls-3" x=".5" y=".5" width="236.44" height="236.44" rx="33.61" ry="33.61"/>
      <g>
        <g>
          <g>
            <path class="cls-6" d="M192.67,99.74c0,4.86-.51,9.42-1.48,13.7-.79,3.49-1.88,6.78-3.25,9.89-10.69,24.24-38.24,36.64-69.17,36.64s-58.85-12.28-69.1-36.95c5.76-5.9,9.43-14.88,9.43-24.94s-3.66-19-9.4-24.91c9.68-23.86,34.39-39.44,62.65-39.44h13.38c27.55,0,51.9,15.73,61.98,39.91,1.14,2.74,2.1,5.59,2.86,8.54,1.34,5.22,2.06,10.75,2.06,16.53l.03,1.02Z"/>
            <g>
              <path class="cls-5" d="M191.2,113.43c-.79,3.49-1.88,6.78-3.25,9.89-5.73-5.87-9.4-14.86-9.4-24.95s3.57-18.86,9.18-24.73c1.14,2.74,2.1,5.59,2.86,8.54,0,0-.02-.02-.03-.03-4.08,3.38-6.78,9.35-6.78,16.14s2.6,12.52,6.54,15.93c.3-.25,.6-.52,.88-.8Z"/>
              <path class="cls-6" d="M210.74,97.75c0,2.85-2.31,5.17-5.17,5.17-2.35,0-4.33-1.57-4.96-3.71l-3.61,1c-.45,5.42-2.63,10.15-5.8,13.23-.29,.28-.58,.55-.88,.8-3.94-3.41-6.54-9.28-6.54-15.93s2.7-12.76,6.78-16.14c0,0,.02,.02,.03,.03,3.38,2.95,5.77,7.71,6.36,13.22l3.63,1.02c.58-2.21,2.6-3.84,4.99-3.84,2.86,0,5.17,2.31,5.17,5.17Z"/>
            </g>
            <g>
              <path class="cls-6" d="M53.57,98.08c0,6.71-2.64,12.61-6.63,16.01-.03-.03-.06-.06-.1-.09-3.48-3.03-5.91-7.97-6.41-13.68l-3.63-1.02c-.66,2.09-2.62,3.61-4.93,3.61-2.86,0-5.17-2.31-5.17-5.17s2.31-5.17,5.17-5.17c2.42,0,4.45,1.67,5.02,3.91l3.57-.99c.58-5.57,2.98-10.38,6.41-13.35,.03-.03,.06-.05,.09-.08,3.98,3.41,6.61,9.31,6.61,16Z"/>
              <path class="cls-5" d="M59.1,98.08c0,10.06-3.67,19.03-9.43,24.94-1.18-2.84-2.13-5.84-2.83-9.01,.03,.03,.06,.06,.1,.09,3.99-3.41,6.63-9.31,6.63-16.01s-2.63-12.59-6.61-16c-.03,.03-.06,.05-.09,.08,.71-3.11,1.66-6.11,2.83-8.98,5.74,5.9,9.4,14.87,9.4,24.91Z"/>
            </g>
          </g>
          <g>
            <path class="cls-5" d="M120.01,140.11h-.51c-50.06,0-55.42-19.08-55.42-47.9h0c0-17.43,10.69-31.55,28.12-31.55h53.22c17.43,0,28.55,14.13,28.55,31.55h0c0,28.83-8.28,47.91-53.95,47.91Z"/>
            <path class="cls-2" d="M119.89,140.34h-.46c-49.73,0-53.14-21.1-53.14-47.13h0c0-15.73,12.76-28.49,28.49-28.49h48.05c15.73,0,28.49,12.76,28.49,28.49h0c0,26.03-5.25,47.13-51.43,47.13Z"/>
          </g>
          <g>
            <ellipse class="cls-6" cx="94.1" cy="93.14" rx="5.71" ry="7.74"/>
            <path class="cls-6" d="M153.14,95.98c-.59,0-1.16-.3-1.48-.84-.08-.13-1.93-3.14-5.49-3.16-.02,0-.03,0-.05,0-3.49,0-5.37,2.88-5.45,3.01-.51,.8-1.57,1.04-2.37,.53-.8-.51-1.04-1.57-.53-2.37,1.09-1.72,4.06-4.61,8.35-4.61,.02,0,.05,0,.07,0,5.51,.04,8.31,4.65,8.42,4.84,.48,.82,.22,1.87-.6,2.35-.28,.16-.58,.24-.88,.24Z"/>
          </g>
          <g>
            <circle class="cls-1" cx="81.53" cy="109.81" r="4.82"/>
            <circle class="cls-1" cx="155.5" cy="109.81" r="4.82"/>
          </g>
          <g>
            <path class="cls-6" d="M98.46,107.12c6.68,.76,14.24,1.24,22.52,1.18,8.02-.06,15.35-.63,21.86-1.44,.25,1.08,2.66,12.4-4.79,20.15-5.43,5.64-12.74,5.9-16.67,6.04-4.15,.15-12.34,.44-18.25-5.65-7.59-7.81-4.88-19.41-4.66-20.28Z"/>
            <path class="cls-4" d="M135.6,127.36c-3.45,2.25-8.79,3.7-14.77,3.7-5.09,0-9.71-1.04-13.11-2.75,3.1-2.67,8.47-4.44,14.57-4.44,5.34,0,10.12,1.35,13.31,3.48Z"/>
          </g>
        </g>
        <g>
          <path class="cls-4" d="M56.44,203.71c-2.13,0-3.86-1.73-3.86-3.86v-29.54c0-2.13,1.73-3.86,3.86-3.86h10.54c.16,0,.32,0,.48,.03,5.89,.73,10.51,5.48,11,11.29,.53,6.27-3.99,12.1-10.28,13.28-.23,.04-.47,.07-.71,.07h-7.16v8.74c0,2.13-1.73,3.86-3.86,3.86Zm3.86-20.33h6.75c2.28-.57,3.89-2.7,3.7-4.97-.18-2.12-1.87-3.87-4.05-4.24h-6.4v9.21Z"/>
          <path class="cls-4" d="M91.57,203.26c-4.62,0-7.8-2.6-8.98-3.75-3.6-3.51-3.92-7.85-4.03-9.28-.1-1.39-.34-8.55,5.26-12.94,2.81-2.21,5.64-2.74,7.51-2.8h0c1.36-.04,4.87,.14,8.1,2.66,4.64,3.63,4.92,9.17,5.01,10.99,.09,1.74,.32,6.35-3,10.35-1.14,1.37-4.34,4.58-9.42,4.76-.15,0-.3,0-.45,0Zm.06-21.47s-.07,0-.08,0c-1.13,.03-2.22,.45-3.22,1.24-2.74,2.15-2.52,6.2-2.48,6.66,.07,.98,.22,3.02,1.84,4.6,.54,.53,2.03,1.75,4.06,1.67,2.14-.08,3.56-1.52,4.07-2.13,1.5-1.81,1.39-4,1.33-5.31-.06-1.21-.2-4.03-2.22-5.61-1.34-1.05-2.9-1.12-3.3-1.12Zm-.19-3.65h0Z"/>
          <path class="cls-4" d="M116.11,203.28s-.03,0-.04,0c-1.62-.02-3.05-1.04-3.6-2.56l-7.43-20.74c-.72-2.01,.32-4.22,2.33-4.94,2.01-.72,4.22,.33,4.94,2.33l3.92,10.93,4.15-10.82c.57-1.48,1.99-2.47,3.58-2.48,.01,0,.02,0,.03,0,1.58,0,3,.96,3.58,2.42l4.53,11.25,4.38-11.03c.58-1.47,2.01-2.44,3.59-2.44h.02c1.59,0,3.01,.99,3.59,2.47l4.2,10.84,4.36-10.95c.59-1.47,2.01-2.43,3.59-2.43h.02c1.59,0,3.01,.99,3.59,2.47l4.24,10.93,4.24-10.93c.77-1.99,3.01-2.98,5-2.2,1.99,.77,2.98,3.01,2.2,5l-7.84,20.22c-.58,1.49-2.01,2.47-3.6,2.47h0c-1.6,0-3.03-.98-3.6-2.47l-4.29-11.06-4.37,10.96c-.59,1.47-2.01,2.43-3.59,2.43h-.02c-1.59,0-3.01-.99-3.58-2.47l-4.19-10.82-4.31,10.85c-.58,1.47-2,2.44-3.58,2.44h0c-1.58,0-3-.96-3.59-2.42l-4.47-11.09-4.36,11.36c-.57,1.5-2.01,2.48-3.61,2.48Z"/>
          <circle class="cls-4" cx="180.08" cy="168.6" r="4.23"/>
          <path class="cls-4" d="M180.05,202.81c-2.02,0-3.65-1.63-3.65-3.65v-20.48c0-2.02,1.63-3.65,3.65-3.65s3.65,1.63,3.65,3.65v20.48c0,2.02-1.63,3.65-3.65,3.65Z"/>
        </g>
      </g>
    </g>
  </g>
</svg>