<?xml version="1.0" encoding="UTF-8"?>
<svg id="Capa_2" data-name="Capa 2" xmlns="http://www.w3.org/2000/svg" viewBox="0 0 237.44 237.44">
  <defs>
    <style>
      .cls-1 {
        fill: #022a9b;
      }

      .cls-2 {
        fill: #fff;
        stroke: #000;
        stroke-miterlimit: 10;
      }

      .cls-3 {
        fill: #ff5874;
      }
    </style>
  </defs>
  <g id="Capa_1-2" data-name="Capa 1">
    <g id="uala">
      <rect class="cls-2" x=".5" y=".5" width="236.44" height="236.44" rx="33.61" ry="33.61"/>
      <g>
        <path class="cls-3" d="M164.91,92.36c-1.63,.73-3.41,1.67-5.27,2.86-6.27,4.02-9.93,8.79-13.76,14.16-7.54,10.58-8.26,13.06-14.17,21.75-6.93,10.19-11.1,16.32-17.56,21.53,1.2-1.08,1.85-1.8,1.85-1.82-.04,0-4.11,4.35-10.83,6.8-2.41,.88-8.18,2.9-15.31,1.23-7.72-1.81-12.17-6.74-13.76-8.56-1.34-1.53-2.42-3.39-3.82-6.25,2.24-.25,4.65-1.28,9.1-5.25,7.36-6.56,11.42-13.17,11.58-13.41,13.9-22.62,23.38-33.51,25.91-36.35,.59-.67,1.17-1.33,1.76-1.97-.02,.03-.02,.04-.01,.05,.17,.2,4.17-4.76,11.43-7.31,1.89-.66,8.53-2.9,16.51-.59,8,2.32,12.47,7.75,14.22,9.94,.8,1,1.49,2.03,2.13,3.19Z"/>
        <path class="cls-1" d="M116,150.84s-.65,.74-1.85,1.82c-2.09,1.89-5.84,4.91-10.68,7.28-12.27,6.02-24.26,4.39-27.83,3.83-17.6-2.77-28.29-14.14-32.1-18.2-2.45-2.6-8.55-9.55-12.53-20.17-1.82-4.86-4.06-11.06-2.82-18.81,.53-3.3,1.31-7.8,5.11-11.46,4.3-4.15,9.64-4.51,11.16-4.59,1.44-.07,7.21-.38,11.92,3.67,3.42,2.94,4.53,6.67,5.05,8.41,1.04,3.51,.38,4.85,.91,10.7,0,0,.41,4.41,1.53,9.32,1.48,6.46,3.59,11.08,5.97,16.21,.95,2.05,1.74,3.76,2.44,5.21,1.4,2.86,2.48,4.72,3.82,6.25,1.59,1.82,6.04,6.75,13.76,8.56,7.13,1.67,12.9-.35,15.31-1.23,6.72-2.45,10.79-6.8,10.83-6.8Z"/>
        <path class="cls-1" d="M209.25,126.01c-.03,4.29-.08,10.53-4.74,15.44-4.85,5.1-11.43,5.33-12.69,5.35-1.13,0-8.55,.12-12.84-5.05-1.92-2.31-2.5-5.82-3.67-12.84-.88-5.31-.53-5.61-1.22-9.78-1.15-6.97-3.11-12.13-4.74-16.36-1.84-4.76-3.05-7.89-4.44-10.41-.64-1.16-1.33-2.19-2.13-3.19-1.75-2.19-6.22-7.62-14.22-9.94-7.98-2.31-14.62-.07-16.51,.59-7.26,2.55-11.26,7.51-11.43,7.31-.01-.01-.01-.02,.01-.05,.16-.58,4.62-6.07,12.03-9.84,6.95-3.53,13.29-3.94,17.43-4.12,3.66-.16,12.81-.19,23.39,4.12,3.75,1.53,11.14,5.01,18.34,12.08,7.94,7.78,11.42,15.75,13.3,20.18,2.24,5.26,4.18,9.98,4.13,16.51Z"/>
      </g>
    </g>
  </g>
</svg>